<?xml version="1.0" encoding="UTF-8"?>
<svg width="256px" height="256px" viewBox="0 0 256 256" version="1.1" xmlns="http://www.w3.org/2000/svg" xmlns:xlink="http://www.w3.org/1999/xlink">
    <g transform="translate(56.000000, 4.000000)" fill="#0000FF" fill-rule="nonzero">
        <path d="M77.313,148.759312 C119.716,148.759312 154.092,115.458531 154.092,74.3795594 C154.092,33.3008781 119.716,0 77.313,0 C34.9089,0 0.5338,33.3008781 0.5338,74.3795594 C0.5338,115.458531 34.9089,148.759312 77.313,148.759312 Z"></path>
        <path d="M38.9233,248 C46.506,248 53.918,245.824187 60.226,241.748656 C66.534,237.672156 71.454,231.878062 74.367,225.095844 C77.279,218.313625 78.054,210.848437 76.592,203.640937 C75.13,196.433437 71.498,189.806219 66.153,184.596281 C60.808,179.385375 53.991,175.825219 46.56,174.363375 C39.129,172.9025 31.4179,173.605812 24.399,176.384187 C17.3802,179.163531 11.368,183.893937 7.1208,189.978656 C2.8736,196.063375 0.5816,203.231156 0.5338,210.576219 C0.5376,220.459406 4.5757,229.941531 11.7674,236.952375 C18.9591,243.963219 28.7208,247.934125 38.9233,248 Z"></path>
    </g>
</svg>
