<svg xmlns="http://www.w3.org/2000/svg"><symbol fill="none" id="sprite-edit-link" viewBox="0 0 24 24"><path d="M0 0h24v24H0z"/><path fill-rule="evenodd" clip-rule="evenodd" d="M8.644 14.448L5.34 17.751a.725.725 0 101.025 1.025l3.302-3.303a.725.725 0 00-1.024-1.025zm-4.717 1.889A2.725 2.725 0 107.78 20.19l3.302-3.303a2.725 2.725 0 00-3.853-3.853l-3.302 3.303zM17.751 5.34l-3.303 3.304a.725.725 0 001.025 1.024l3.303-3.302A.725.725 0 1017.75 5.34zm-4.717 1.89a2.725 2.725 0 003.853 3.852L20.19 7.78a2.724 2.724 0 10-3.853-3.853l-3.303 3.302z" fill="#34374C"/><rect width="8.485" height="1.543" rx=".771" transform="scale(1 -1) rotate(45 23.68 3.809)" fill="#B8B8BF"/><path d="M13.414 18.364l-.707 2.121 2.121-.707-1.414-1.414zm1.768 1.061l-1.414-1.415 4.95-4.95 1.414 1.415-4.95 4.95zm5.303-5.304a1 1 0 00-1.414-1.414l1.414 1.414z" fill="#34374C"/></symbol><symbol fill="none" id="sprite-insert-chart" viewBox="0 0 24 24"><path fill="#fff" d="M0 0h24v24H0z"/><path fill-rule="evenodd" clip-rule="evenodd" d="M9.424 21.686c5.34 1.432 10.831-1.738 12.262-7.08 1.432-5.34-1.738-10.831-7.08-12.262C9.266.912 3.775 4.082 2.344 9.424c-1.432 5.34 1.738 10.831 7.08 12.262zm2.267-8.462a1.252 1.252 0 10.648-2.418 1.252 1.252 0 00-.648 2.418z" fill="#34374C"/><path d="M21.686 14.606c1.432-5.341-1.738-10.831-7.08-12.262l-2.267 8.462c.668.179 1.064.865.885 1.533l8.462 2.267z" fill="#999BA5"/><path d="M21.686 14.606l-8.462-2.267c-.088.329-.3.592-.57.753l4.467 7.536a9.98 9.98 0 004.565-6.022z" fill="#B8B8BF"/></symbol><symbol fill="none" id="sprite-insert-link" viewBox="0 0 24 24"><path d="M0 0h24v24H0z"/><path fill-rule="evenodd" clip-rule="evenodd" d="M8.644 14.448L5.34 17.751a.725.725 0 101.025 1.025l3.302-3.303a.725.725 0 00-1.024-1.025zm-4.717 1.889A2.725 2.725 0 107.78 20.19l3.302-3.303a2.725 2.725 0 00-3.853-3.853l-3.302 3.303zM17.751 5.34l-3.303 3.304a.725.725 0 001.025 1.024l3.303-3.302A.725.725 0 1017.75 5.34zm-4.717 1.89a2.725 2.725 0 003.853 3.852L20.19 7.78a2.725 2.725 0 00-3.853-3.853l-3.303 3.302z" fill="#34374C"/><rect x="7.855" y="15.011" width="10.12" height="1.84" rx=".92" transform="rotate(-45 7.855 15.01)" fill="#B8B8BF"/><circle cx="16.5" cy="16.5" r="3.5" fill="#34374C"/><path d="M17 14h-1v2h-2v1h2v2h1v-2h2v-1h-2v-2z" fill="#fff"/></symbol><symbol fill="none" id="sprite-remove-link" viewBox="0 0 24 24"><path d="M0 0h24v24H0z"/><path d="M4.557 16.998a2.143 2.143 0 003.03 3.03l4.042-4.04c.66-.66.8-1.643.419-2.44l-5.47 5.47a.715.715 0 01-1.011-1.01l5.47-5.47a2.144 2.144 0 00-2.439.419l-4.041 4.04zm9.006-4.965c.797.38 1.78.24 2.44-.42l4.041-4.04a2.143 2.143 0 10-3.03-3.032l-4.042 4.042c-.66.66-.8 1.643-.419 2.44l5.47-5.471a.714.714 0 111.01 1.01l-5.47 5.47z" fill="#000"/><rect x="6.962" y="8.531" width="4.286" height="1.429" rx=".714" transform="rotate(30 6.962 8.53)" fill="#999BA5"/><rect x="18.042" y="15.953" width="4.286" height="1.429" rx=".714" transform="rotate(-150 18.042 15.953)" fill="#999BA5"/><rect x="9.018" y="4.977" width="4.286" height="1.429" rx=".714" transform="rotate(60 9.018 4.977)" fill="#999BA5"/><rect x="15.986" y="19.507" width="4.286" height="1.429" rx=".714" transform="rotate(-120 15.986 19.507)" fill="#999BA5"/></symbol></svg>