<svg width="24" height="24" viewBox="0 0 24 24" fill="none" xmlns="http://www.w3.org/2000/svg"><path d="M0 0h24v24H0z"/><path fill-rule="evenodd" clip-rule="evenodd" d="M8.644 14.448L5.34 17.751a.725.725 0 101.025 1.025l3.302-3.303a.725.725 0 00-1.024-1.025zm-4.717 1.889A2.725 2.725 0 107.78 20.19l3.302-3.303a2.725 2.725 0 00-3.853-3.853l-3.302 3.303zM17.751 5.34l-3.303 3.304a.725.725 0 001.025 1.024l3.303-3.302A.725.725 0 1017.75 5.34zm-4.717 1.89a2.725 2.725 0 003.853 3.852L20.19 7.78a2.724 2.724 0 10-3.853-3.853l-3.303 3.302z" fill="#34374C"/><rect width="8.485" height="1.543" rx=".771" transform="scale(1 -1) rotate(45 23.68 3.809)" fill="#B8B8BF"/><path d="M13.414 18.364l-.707 2.121 2.121-.707-1.414-1.414zm1.768 1.061l-1.414-1.415 4.95-4.95 1.414 1.415-4.95 4.95zm5.303-5.304a1 1 0 00-1.414-1.414l1.414 1.414z" fill="#34374C"/></svg>