<svg width="24" height="24" viewBox="0 0 24 24" fill="none" xmlns="http://www.w3.org/2000/svg"><path d="M0 0h24v24H0z"/><path fill-rule="evenodd" clip-rule="evenodd" d="M8.644 14.448L5.34 17.751a.725.725 0 101.025 1.025l3.302-3.303a.725.725 0 00-1.024-1.025zm-4.717 1.889A2.725 2.725 0 107.78 20.19l3.302-3.303a2.725 2.725 0 00-3.853-3.853l-3.302 3.303zM17.751 5.34l-3.303 3.304a.725.725 0 001.025 1.024l3.303-3.302A.725.725 0 1017.75 5.34zm-4.717 1.89a2.725 2.725 0 003.853 3.852L20.19 7.78a2.725 2.725 0 00-3.853-3.853l-3.303 3.302z" fill="#34374C"/><rect x="7.855" y="15.011" width="10.12" height="1.84" rx=".92" transform="rotate(-45 7.855 15.01)" fill="#B8B8BF"/><circle cx="16.5" cy="16.5" r="3.5" fill="#34374C"/><path d="M17 14h-1v2h-2v1h2v2h1v-2h2v-1h-2v-2z" fill="#fff"/></svg>