<svg width="24" height="24" viewBox="0 0 24 24" fill="none" xmlns="http://www.w3.org/2000/svg"><path d="M0 0h24v24H0z"/><path d="M4.557 16.998a2.143 2.143 0 003.03 3.03l4.042-4.04c.66-.66.8-1.643.419-2.44l-5.47 5.47a.715.715 0 01-1.011-1.01l5.47-5.47a2.144 2.144 0 00-2.439.419l-4.041 4.04zm9.006-4.965c.797.38 1.78.24 2.44-.42l4.041-4.04a2.143 2.143 0 10-3.03-3.032l-4.042 4.042c-.66.66-.8 1.643-.419 2.44l5.47-5.471a.714.714 0 111.01 1.01l-5.47 5.47z" fill="#000"/><rect x="6.962" y="8.531" width="4.286" height="1.429" rx=".714" transform="rotate(30 6.962 8.53)" fill="#999BA5"/><rect x="18.042" y="15.953" width="4.286" height="1.429" rx=".714" transform="rotate(-150 18.042 15.953)" fill="#999BA5"/><rect x="9.018" y="4.977" width="4.286" height="1.429" rx=".714" transform="rotate(60 9.018 4.977)" fill="#999BA5"/><rect x="15.986" y="19.507" width="4.286" height="1.429" rx=".714" transform="rotate(-120 15.986 19.507)" fill="#999BA5"/></svg>